<?xml version="1.0" standalone="no"?>
<!DOCTYPE svg PUBLIC "-//W3C//DTD SVG 20010904//EN"
 "http://www.w3.org/TR/2001/REC-SVG-20010904/DTD/svg10.dtd">
<svg version="1.0" xmlns="http://www.w3.org/2000/svg"
 width="500.000000pt" height="500.000000pt" viewBox="0 0 500.000000 500.000000"
 preserveAspectRatio="xMidYMid meet">

<g transform="translate(0.000000,500.000000) scale(0.100000,-0.100000)"
fill="#000000" stroke="none">
<path d="M2355 4924 c-358 -26 -703 -124 -995 -281 -661 -357 -1117 -984
-1249 -1718 -28 -156 -34 -235 -34 -425 0 -242 16 -378 75 -608 217 -858 916
-1545 1779 -1751 208 -49 343 -65 569 -65 346 0 640 59 950 191 164 70 400
203 400 226 0 6 3 8 6 4 15 -15 230 158 360 287 145 146 331 386 317 409 -3 6
-2 7 4 4 21 -13 171 279 242 470 63 172 99 322 132 548 16 106 16 446 0 565
-84 644 -381 1189 -867 1592 -165 136 -496 339 -527 322 -6 -4 -9 -4 -5 1 21
22 -344 148 -537 186 -170 33 -472 54 -620 43z m-261 -1303 c141 -50 278 -157
361 -283 21 -32 41 -58 45 -58 3 0 28 32 55 70 84 124 204 217 347 268 66 24
86 26 218 25 129 0 152 -3 212 -25 212 -79 342 -232 410 -483 20 -76 17 -360
-5 -453 -74 -310 -221 -543 -537 -854 -168 -165 -342 -328 -351 -328 -3 0 -81
-73 -174 -162 -92 -90 -171 -164 -175 -166 -4 -1 -44 36 -90 82 -46 47 -88 83
-93 79 -6 -3 -7 -1 -4 4 4 6 -30 44 -75 84 -244 219 -414 378 -505 471 -57 58
-106 102 -110 99 -5 -3 -5 -2 -1 2 4 5 -20 42 -52 83 -100 125 -128 169 -205
324 -89 176 -119 310 -119 525 0 181 17 262 79 387 19 37 32 68 29 68 -3 0 32
37 77 83 109 107 170 139 344 181 11 3 74 3 140 1 88 -2 136 -9 179 -24z"/>
</g>
</svg>
